# xmcd
#
# Track frame offsets: 
#        150
#        19054
#        31540
#        42902
#        57544
#        71312
#        87532
#        102914
#        120628
#        138618
#        152103
#        165687
#        180917
#        192130
#        208438
#
# Disc length: 2935 seconds
#
# Revision: 3
# Processed by: cddbd v1.5.2PL0 Copyright (c) Steve Scherf et al.
# Submitted via: ExactAudioCopy v0.99pb4
#
DISCID=cc0b750f
DTITLE=Various Artist - Classic Country: Great Duets [CD1)
DYEAR=2004
DGENRE=Country
TTITLE0=Kenny Rogers and Dolly Parton - Islands In The Stream
TTITLE1=Johnny Cash and June Carter - Jackson
TTITLE2=Loretta Lynn and Conway Twitty - Lousianna Woman, Mississippi Ma
TTITLE2=n
TTITLE3=Chalie Rich and Janie Frickie - On My Knees
TTITLE4=George Jones and Tammy Wynette - Golden Ring
TTITLE5=Earl Thomas Conley and Emmylou Harris - We Believe In Happy Endi
TTITLE5=ngs
TTITLE6=David Frizzell and Shelly West - You're The Reason God Made Okla
TTITLE6=homa
TTITLE7=Marie Osmond and Dan Seals - Meet Me In Montana
TTITLE8=Eddie Rabbit and Crystal Gayle - You And I
TTITLE9=Charly Mcclain and Mickey Gilley - Paradise Tonight
TTITLE10=Dottie West and Kenny Rogers - What Are We Doin' In Love
TTITLE11=Hoyt Axton and Linda Ronstadt - Lion In The Winter
TTITLE12=Porter Wagoner and Dolly Parton - Holding On To Nothin'
TTITLE13=Merle Haggard and Janie Fricke - A Place To Fall Apart
TTITLE14=Glen Campbell and Bobbie Gentry - All I Have To Do Is Dream
EXTD=
EXTT0=
EXTT1=
EXTT2=
EXTT3=
EXTT4=
EXTT5=
EXTT6=
EXTT7=
EXTT8=
EXTT9=
EXTT10=
EXTT11=
EXTT12=
EXTT13=
EXTT14=
PLAYORDER=
